PathFileType	4	(X/Y/Z)	c:/Users/goper/Files/vsCode/490R/osim_files/A05/A05_Fast_06.trc
DataRate	CameraRate	NumFrames	NumMarkers	Units                	OrigDataRate	OrigDataStartFrame	OrigNumFrames
250.00	250.00	10	36	mm	250.0	1161	2320
                Frame#	Time	LPSIS			LASIS			LTH1			LTH2			LTH3			LTH4			LLFE			LMFE			LSH1			LSH2			LSH3			LSH4			LLMAL			LMMAL			LCAL			LMTP5			LTOE			LMTP1			RPSIS			RASIS			RTH1			RTH2			RTH3			RTH4			RLFE			RMFE			RSH1			RSH2			RSH3			RSH4			RLMAL			RMMAL			RCAL			RMTP1			RTOE			RMTP5		
		X1	Y1	Z1	X2	Y2	Z2	X3	Y3	Z3	X4	Y4	Z4	X5	Y5	Z5	X6	Y6	Z6	X7	Y7	Z7	X8	Y8	Z8	X9	Y9	Z9	X10	Y10	Z10	X11	Y11	Z11	X12	Y12	Z12	X13	Y13	Z13	X14	Y14	Z14	X15	Y15	Z15	X16	Y16	Z16	X17	Y17	Z17	X18	Y18	Z18	X19	Y19	Z19	X20	Y20	Z20	X21	Y21	Z21	X22	Y22	Z22	X23	Y23	Z23	X24	Y24	Z24	X25	Y25	Z25	X26	Y26	Z26	X27	Y27	Z27	X28	Y28	Z28	X29	Y29	Z29	X30	Y30	Z30	X31	Y31	Z31	X32	Y32	Z32	X33	Y33	Z33	X34	Y34	Z34	X35	Y35	Z35	X36	Y36	Z36

1161	4.64000	-728.28906	1033.51062	288.52252	0.00000	0.00000	0.00000	0.00000	0.00000	0.00000	-884.66779	663.40210	461.78503	-915.23364	726.95923	473.05289	-930.33990	686.80682	471.60666	-994.35864	518.97449	452.89975	-988.95636	510.79504	352.92334	0.00000	0.00000	0.00000	-956.48199	380.61856	476.18423	0.00000	0.00000	0.00000	-1007.12048	372.93747	464.14206	-968.90790	154.16075	481.54645	-966.01678	150.97701	391.57809	-884.81305	98.19455	436.87753	-1095.96265	91.63219	508.31451	-1142.99072	108.34492	444.84906	-1101.13306	97.14174	399.26697	-741.82227	1033.50867	207.58755	-930.03363	976.77856	113.24746	-861.75269	599.65906	75.05944	-868.59235	560.74677	88.73560	-916.08069	610.91339	102.11961	0.00000	0.00000	0.00000	0.00000	0.00000	0.00000	-846.22491	503.50659	233.77065	-760.80908	270.59894	96.01883	-750.30719	224.63440	106.30137	-818.69019	253.28162	111.75706	-799.19788	208.21548	115.85831	-728.29968	116.41088	127.04895	-772.25842	135.44258	217.32883	-667.88647	74.16360	207.61520	-880.40552	53.63414	204.35393	-910.62054	61.51899	149.23816	-842.66882	42.05293	88.48097
1162	4.64400	-731.90125	1032.98193	289.05423	0.00000	0.00000	0.00000	-863.99670	698.01996	460.70950	-888.09674	662.63409	462.07455	-918.97882	726.21259	472.80386	-934.07159	686.32043	471.87280	-997.09467	517.89856	452.71213	-990.68774	509.25558	352.79175	0.00000	0.00000	0.00000	-962.46320	378.90939	476.74268	0.00000	0.00000	0.00000	-1013.36926	371.81519	463.90045	-979.27289	152.73309	482.64554	-975.31329	149.19510	392.74335	-896.28821	95.21323	438.96948	-1108.05933	92.89379	507.92734	-1153.93469	110.33562	443.86014	-1111.63477	98.10390	398.84915	-745.16425	1033.16553	208.17554	-933.28467	976.42328	113.24903	-863.79083	599.42529	75.00780	-870.41357	560.51691	88.62492	-918.51343	608.98065	103.93005	-914.26617	564.70636	115.62316	0.00000	0.00000	0.00000	-847.86719	503.22217	233.69357	-761.33228	270.63492	95.97537	-750.35327	224.93388	106.80979	-819.11279	253.12148	111.60053	-799.55835	208.15726	115.75710	-728.42969	116.50449	127.00461	-772.64160	135.47038	217.31282	-667.90454	74.22923	207.60980	-880.43243	53.66379	204.30034	-910.66559	61.48625	149.19936	-842.69458	42.01782	88.39950
1163	4.64800	-735.56232	1032.38696	289.58545	0.00000	0.00000	0.00000	-866.43561	697.44202	460.30356	-891.49091	661.92908	462.38309	-922.61633	725.39996	472.66876	-937.58453	685.44299	471.66855	-999.93982	516.80322	452.52747	-992.53711	507.76291	352.75079	0.00000	0.00000	0.00000	-968.15710	377.22195	477.32977	0.00000	0.00000	0.00000	-1018.95026	371.11493	463.91537	-989.68988	151.46477	483.54108	-984.63074	147.52864	393.75839	-907.34497	92.19292	441.07111	-1119.88110	94.23238	507.51172	-1164.59485	112.40755	442.79620	-1121.62610	99.01184	398.39474	-748.62842	1032.76050	208.68407	-936.43530	976.08850	113.16442	-865.76501	599.22723	74.92099	-872.13788	560.30713	88.51591	-920.54352	608.66528	103.84357	0.00000	0.00000	0.00000	0.00000	0.00000	0.00000	-849.68604	502.83624	233.54979	-761.93494	270.68796	95.96503	-751.12036	224.82484	106.32423	-819.56830	252.92900	111.48914	-799.88501	208.12549	115.64254	-728.25366	116.82747	127.07376	-772.81848	135.50612	217.30365	-667.92908	74.30617	207.62700	-880.14160	53.56381	204.36517	-910.71246	61.44624	149.17636	-843.12445	42.09633	88.42532
1164	4.65200	-739.29529	1031.82251	290.21680	0.00000	0.00000	0.00000	-870.75043	696.61115	461.89761	-894.84540	661.22028	462.72287	-926.48590	724.59875	472.47345	-941.20074	684.55133	471.43494	-1002.72290	515.67352	452.43872	-995.96234	505.81726	352.63083	0.00000	0.00000	0.00000	-974.08850	375.58435	477.89728	0.00000	0.00000	0.00000	-1024.74927	370.42770	463.89941	-1000.05072	150.31265	484.37701	-993.93713	145.98381	394.69104	-918.30103	89.35714	442.97510	-1131.58264	95.71220	506.91531	-1175.18872	114.60577	441.65320	-1132.19995	100.44296	397.72345	-752.05975	1032.38049	209.26144	0.00000	0.00000	0.00000	-867.60870	598.99768	74.84130	-873.95203	560.05054	88.38627	-922.51038	608.23059	103.72283	0.00000	0.00000	0.00000	0.00000	0.00000	0.00000	-851.61749	502.51431	233.50571	-762.53229	270.74960	95.99320	-751.57373	224.89774	106.32591	-820.27942	252.80223	111.42059	-800.19495	208.03432	115.60065	-728.61072	116.86894	127.11126	-773.03345	135.60370	217.28542	-667.94965	74.39033	207.64293	-880.17633	53.58529	204.32640	-910.79626	61.44056	149.18755	-843.10840	42.06973	88.40189
1165	4.65600	-743.74274	1030.09851	290.53198	-932.15942	991.77124	408.44168	0.00000	0.00000	0.00000	-898.36700	660.41376	463.10516	-930.19324	723.81158	472.38187	-944.72772	683.69733	471.37186	-1005.65845	514.58185	452.37933	-996.34900	504.83640	352.91913	0.00000	0.00000	0.00000	-979.89636	374.04572	478.50076	0.00000	0.00000	0.00000	-1030.28528	369.79947	463.95132	-1010.27545	149.24387	485.03519	-1003.31348	144.46001	395.33783	-929.28766	86.81730	444.86819	-1142.92395	97.27359	506.23462	-1185.41626	116.83583	440.49387	-1142.07825	101.66389	397.24045	-755.48224	1031.99170	209.86588	-942.89606	975.37164	113.16016	-869.38495	598.81165	74.70171	-875.84515	559.81042	88.23701	-924.42505	607.82770	103.53295	0.00000	0.00000	0.00000	0.00000	0.00000	0.00000	-853.49811	502.24771	233.31342	-763.12848	270.86099	96.01736	-751.98547	225.04517	106.34377	-820.85498	252.57857	111.37199	-800.53009	207.93881	115.54057	-728.73578	117.02794	127.10071	-773.28723	135.67223	217.27477	-668.00842	74.46748	207.66762	-880.25018	53.62121	204.30040	-910.86340	61.42765	149.11813	-843.07404	42.03090	88.37666
1166	4.66000	-747.85150	1029.96790	291.45825	-935.93378	990.53857	407.78870	0.00000	0.00000	0.00000	-901.76477	659.60284	463.52374	-933.80225	723.03455	472.33484	-948.26581	682.78589	471.27768	-1008.64093	513.56934	452.43225	-1000.13135	502.89023	352.89078	0.00000	0.00000	0.00000	-985.80444	372.60083	479.05920	0.00000	0.00000	0.00000	-1036.04199	369.30084	463.98175	-1020.28839	148.36287	485.60052	-1012.43805	143.29167	396.01337	-939.91144	84.53329	446.44125	-1154.12061	98.92627	505.55634	-1195.46204	119.11298	439.24017	-1152.19458	103.29424	396.27139	-759.06451	1031.50867	210.34792	-946.11865	974.98022	113.17187	-871.28815	598.51935	74.55142	-877.66962	559.52386	88.11232	-926.32721	607.42389	103.23465	0.00000	0.00000	0.00000	0.00000	0.00000	0.00000	-855.22559	501.93021	233.13196	-763.67731	270.92545	96.03038	-752.45581	225.20067	106.41396	-821.31116	252.42615	111.26984	-800.88324	207.84926	115.49118	-728.87341	117.21587	127.13456	-773.55310	135.73265	217.30302	-668.03943	74.57064	207.68916	-880.25238	53.66863	204.28265	-910.97778	61.45707	149.16539	-843.08191	42.00132	88.36553
1167	4.66400	-751.60394	1029.41089	292.06378	-939.77209	989.42419	407.27805	-881.10724	694.18207	463.39276	-905.22406	658.80701	463.89709	-937.51190	722.18268	472.29764	-951.79871	681.88690	471.28598	-1011.61420	512.56842	452.47992	-1002.44684	501.52643	353.10541	0.00000	0.00000	0.00000	-991.45264	371.31393	479.50839	0.00000	0.00000	0.00000	-1041.73218	368.80252	464.05869	-1030.13452	147.70035	486.08240	-1021.31470	142.26300	396.59088	-950.83008	82.37128	447.56873	-1164.93140	100.59947	504.70932	-1205.30933	121.54539	437.95822	-1161.88757	104.82685	395.54581	-762.44421	1031.08484	210.97722	-949.36584	974.61676	113.10926	-873.97858	599.59619	73.97160	-879.38617	559.26031	87.93197	-928.27893	607.00165	103.00109	0.00000	0.00000	0.00000	0.00000	0.00000	0.00000	-857.10834	501.64978	233.01878	-764.26569	270.99203	96.00145	-752.84119	225.35660	106.43542	-821.79083	252.25450	111.20885	-801.36755	207.80730	115.48428	-728.96576	117.40871	127.15806	-773.80090	135.81691	217.27708	-668.04816	74.65945	207.70172	-880.29755	53.73864	204.24986	-911.00800	61.46136	149.10959	-842.94067	41.91991	88.32130
1168	4.66800	-755.14740	1028.77539	292.68552	-943.59534	988.53027	407.09525	0.00000	0.00000	0.00000	-908.56879	657.96149	464.33215	-941.03717	721.28845	472.38348	-955.29517	681.04388	471.39798	-1014.73218	511.55753	452.65192	-1003.27838	500.66833	353.54178	0.00000	0.00000	0.00000	-997.18115	369.94699	480.02304	-1050.31812	410.48724	455.04089	-1047.32446	368.37936	464.06631	-1039.61121	147.08179	486.41608	-1030.24219	141.46045	396.95291	-961.20349	80.39370	448.63614	-1175.44934	102.34476	503.93213	-1214.76306	123.84153	436.75290	-1171.26416	106.33739	394.68518	-766.07379	1030.54871	211.53056	-952.61359	974.20245	113.14319	-875.93677	599.29169	73.89439	-881.13177	558.99811	87.81322	-930.27222	606.59595	102.71099	0.00000	0.00000	0.00000	0.00000	0.00000	0.00000	-858.95325	501.38284	232.88907	-764.84229	271.06232	96.05429	-753.29968	225.46741	106.47720	-822.38159	252.12927	111.17459	-801.76624	207.72810	115.47629	-729.05682	117.55822	127.13537	-773.95941	135.86948	217.28554	-668.06775	74.76360	207.70523	-880.28461	53.75892	204.18129	-911.22278	61.46312	149.03250	-842.98541	41.91314	88.27674
1169	4.67200	-758.85944	1028.14453	293.30807	-947.45758	987.59747	406.93829	-888.01508	692.65405	464.13986	-912.02411	657.04553	464.73581	-944.54059	720.42743	472.51001	-958.85217	680.10724	471.43607	-1017.91608	510.62125	452.80969	-1005.94543	499.48398	353.84351	0.00000	0.00000	0.00000	-1002.79895	368.78949	480.41513	-1055.19519	410.00140	454.84375	-1053.02478	367.93954	464.13754	-1048.88123	146.63179	486.62842	-1039.03259	140.75078	397.19836	-971.36499	78.51676	449.40472	-1185.56274	104.00558	503.08621	-1224.08875	126.13545	435.63513	-1180.58728	107.94677	393.90216	-769.46240	1030.08337	212.13535	0.00000	0.00000	0.00000	-877.71765	599.07062	73.76009	-883.00909	558.70935	87.72848	-932.27240	606.25592	102.38935	0.00000	0.00000	0.00000	0.00000	0.00000	0.00000	-860.61365	501.03436	232.78064	-765.39478	271.10162	96.14285	-753.71216	225.57713	106.47764	-823.00073	251.99120	111.16124	-802.12280	207.64783	115.39552	-729.13739	117.71680	127.16945	-774.11865	135.91200	217.24736	-668.07275	74.83652	207.69794	-880.49237	53.85366	204.09940	-910.99097	61.56684	149.04500	-842.99957	41.88762	88.24960
1170	4.67600	-762.58710	1027.46606	293.93341	-951.38739	986.71881	407.07312	-891.75543	691.75757	465.16742	-915.45734	656.14142	465.16785	-948.15997	719.54144	472.66406	-962.22992	679.18481	471.63931	-1021.38257	509.68204	453.01404	-1008.87421	498.34332	354.15277	0.00000	0.00000	0.00000	-1008.49384	367.67462	480.79550	0.00000	0.00000	0.00000	-1058.63416	367.57288	464.14496	-1057.87268	146.26625	486.73218	-1047.37500	140.14435	397.32608	-981.16772	76.96306	449.96396	-1195.22644	105.67827	502.42191	-1233.04590	128.35846	434.51517	-1189.57153	109.61543	393.17114	-772.98853	1029.52722	212.77992	-959.08807	973.40875	113.17095	-879.58398	598.79431	73.72075	-884.90906	558.39490	87.65208	-934.27960	605.69635	102.10835	0.00000	0.00000	0.00000	-853.42462	520.93195	90.39798	-862.49030	500.82278	232.75488	-766.05731	271.17337	96.16476	-754.11755	225.65274	106.53222	-823.48657	251.82532	111.09062	-802.46002	207.56325	115.35980	-729.20856	117.85796	127.18401	-774.39655	135.95111	217.25919	-668.12805	74.89774	207.70325	-880.52014	53.86267	204.07906	-911.05823	61.51550	149.01874	-843.05640	41.87791	88.24545
